<svg xmlns="http://www.w3.org/2000/svg" width="200" height="40" viewBox="0 0 200 40"><rect width="100%" height="100%" fill="#DDDDDD"/><path fill="#999999" d="M52.73 23.525h2.72q.75 0 1.26-.18t.82-.48q.3-.3.44-.7.13-.4.13-.85 0-.47-.15-.85-.15-.37-.47-.63-.32-.27-.82-.41-.51-.14-1.22-.14h-2.71v4.24Zm2.29-10.28h-2.29v4.18h2.14q1.38 0 2.09-.5.7-.5.7-1.59 0-1.13-.64-1.61-.64-.48-2-.48Zm-4.98-2.08h4.98q1.42 0 2.43.27 1.01.27 1.66.77.64.5.94 1.21.3.71.3 1.6 0 .51-.15.98-.15.46-.46.86-.32.41-.8.74-.49.33-1.16.56 2.98.67 2.98 3.22 0 .92-.35 1.7-.35.78-1.02 1.34-.67.57-1.65.89-.98.32-2.24.32h-5.46v-14.46ZM65 15.985l.15 1.16q.48-.92 1.14-1.45.66-.52 1.56-.52.71 0 1.14.31l-.16 1.85q-.05.18-.14.25-.1.08-.26.08-.15 0-.44-.05-.3-.05-.58-.05-.41 0-.73.12t-.57.35q-.26.22-.45.54-.2.32-.37.73v6.32h-2.47v-10.26h1.45q.38 0 .53.13.15.14.2.49Zm10.7 6.99v-1.73q-1.07.05-1.8.18-.73.14-1.17.35-.44.21-.63.49t-.19.61q0 .65.39.93.38.28 1 .28.76 0 1.32-.27.55-.28 1.08-.84Zm-5.22-5.39-.44-.79q1.77-1.62 4.26-1.62.9 0 1.61.3.71.29 1.2.81.49.53.75 1.26.25.73.25 1.6v6.48h-1.12q-.35 0-.54-.1-.19-.11-.3-.43l-.22-.74q-.39.35-.76.61-.37.27-.77.45t-.85.28q-.46.09-1.01.09-.65 0-1.2-.17-.55-.18-.95-.53-.4-.35-.62-.87-.22-.52-.22-1.21 0-.39.13-.78.13-.38.43-.73.29-.35.76-.66.47-.31 1.16-.54.68-.23 1.59-.38.91-.14 2.08-.17v-.6q0-1.03-.44-1.53-.44-.49-1.27-.49-.6 0-.99.14-.4.14-.7.32-.3.17-.54.31-.25.14-.55.14-.26 0-.44-.14-.18-.13-.29-.31Zm12.09-1.77.17.81q.31-.31.66-.58.34-.26.73-.45.38-.18.82-.28.44-.11.96-.11.84 0 1.49.29.65.28 1.09.79.43.52.66 1.23.22.72.22 1.58v6.53H86.9v-6.53q0-.94-.43-1.46-.43-.51-1.31-.51-.64 0-1.2.29-.56.29-1.06.79v7.42h-2.47v-10.26h1.51q.48 0 .63.45Zm15.58 6.77v-4.6q-.42-.51-.91-.72-.5-.21-1.07-.21-.56 0-1.01.21-.45.21-.77.63-.32.43-.49 1.08-.17.66-.17 1.55 0 .9.15 1.52.14.63.41 1.02.27.4.66.57.39.18.87.18.77 0 1.31-.32t1.02-.91Zm0-11.82h2.47v14.86h-1.51q-.49 0-.62-.45l-.21-.99q-.62.71-1.42 1.15-.81.44-1.88.44-.84 0-1.54-.35-.7-.35-1.2-1.02-.51-.66-.78-1.64-.28-.98-.28-2.24 0-1.14.31-2.12.31-.98.89-1.7.58-.72 1.39-1.12.81-.41 1.82-.41.86 0 1.47.27t1.09.73v-5.41ZM111 23.405h5.78v2.22h-8.47v-14.46H111v12.24Zm11.85-8.2q1.14 0 2.08.37.93.37 1.6 1.05.66.68 1.02 1.66.36.98.36 2.19 0 1.22-.36 2.2-.36.98-1.02 1.67-.67.69-1.6 1.06-.94.37-2.08.37-1.15 0-2.09-.37t-1.6-1.06q-.67-.69-1.03-1.67-.37-.98-.37-2.2 0-1.21.37-2.19.36-.98 1.03-1.66.66-.68 1.6-1.05.94-.37 2.09-.37Zm0 8.67q1.28 0 1.9-.86.61-.86.61-2.52 0-1.66-.61-2.53-.62-.87-1.9-.87-1.3 0-1.92.87-.63.88-.63 2.53t.63 2.51q.62.87 1.92.87Zm10.7-3.63q.46 0 .8-.12.34-.13.57-.35.22-.22.34-.53.11-.31.11-.68 0-.76-.45-1.21-.46-.44-1.37-.44-.91 0-1.36.44-.46.45-.46 1.21 0 .36.12.67.11.31.34.53.22.23.57.36.34.12.79.12Zm2.79 5.84q0-.3-.18-.49t-.49-.3q-.31-.1-.72-.15-.42-.05-.88-.08l-.96-.04q-.5-.02-.97-.08-.41.23-.66.54-.26.31-.26.72 0 .27.14.5.13.24.43.41.29.17.76.27.47.09 1.15.09.69 0 1.19-.1.5-.11.83-.29.32-.19.47-.44.15-.26.15-.56Zm-.49-10.37h2.95v.92q0 .44-.53.54l-.92.17q.21.53.21 1.16 0 .76-.3 1.37-.31.62-.85 1.05-.54.43-1.27.66-.74.24-1.59.24-.3 0-.58-.03-.28-.03-.55-.08-.48.29-.48.65 0 .31.29.45.28.15.75.21t1.07.08q.6.01 1.23.06.63.05 1.23.17.6.13 1.07.4.47.27.76.73.28.47.28 1.2 0 .68-.33 1.32-.34.64-.97 1.14-.64.5-1.56.81-.93.3-2.11.3-1.16 0-2.02-.22-.86-.23-1.43-.6-.57-.38-.85-.87t-.28-1.02q0-.72.44-1.2.43-.49 1.19-.78-.41-.21-.65-.56-.24-.35-.24-.92 0-.23.09-.48.08-.24.25-.48.16-.24.41-.46.25-.21.59-.38-.78-.42-1.22-1.12-.45-.7-.45-1.64 0-.76.31-1.38.3-.61.85-1.04.54-.44 1.29-.67.74-.23 1.62-.23.66 0 1.24.14.58.13 1.06.39Zm9.05-.51q1.14 0 2.08.37.93.37 1.6 1.05.66.68 1.02 1.66.36.98.36 2.19 0 1.22-.36 2.2-.36.98-1.02 1.67-.67.69-1.6 1.06-.94.37-2.08.37-1.15 0-2.09-.37t-1.6-1.06q-.67-.69-1.03-1.67-.37-.98-.37-2.2 0-1.21.37-2.19.36-.98 1.03-1.66.66-.68 1.6-1.05.94-.37 2.09-.37Zm0 8.67q1.28 0 1.9-.86.61-.86.61-2.52 0-1.66-.61-2.53-.62-.87-1.9-.87-1.3 0-1.92.87-.63.88-.63 2.53t.63 2.51q.62.87 1.92.87Z"/></svg>